# xmcd CD database file
#
# Track frame offsets:
#	183
#	17443
#	41175
#	65163
#	83470
#	101403
#	122290
#
# Disc length: 2044 seconds
#
# Revision: 3
# Processed by: cddbd v1.4PL0 Copyright (c) Steve Scherf et al.
# Submitted via: CDex 1.40Release
#
DISCID=4b07fa07
DTITLE=Groundhogs - Blues Obituary
DYEAR=1969
DGENRE=Rock
TTITLE0=B.D.D.
TTITLE1=Daze of the Weak
TTITLE2=Times
TTITLE3=Mistreated
TTITLE4=Express Man
TTITLE5=Natchez Burning
TTITLE6=Light Was The Day
EXTD=BGO 6 - 2002 YEAR: 1969 ID3G: 17
EXTT0=
EXTT1=
EXTT2=
EXTT3=
EXTT4=
EXTT5=
EXTT6=
PLAYORDER=
